<svg xmlns="http://www.w3.org/2000/svg" t="1773900647765" class="icon" viewBox="0 0 1024 1024" version="1.1" p-id="4736" width="200" height="200"><path d="M708.693333 803.555556H315.306667c-55.850667 0-84.835556-34.503111-84.835556-83.896889V326.257778c0-49.962667 30.535111-105.813333 84.835556-105.813334h393.386666c54.286222 0 104.888889 55.864889 104.888889 105.813334V719.644444c0 49.408-49.038222 83.911111-104.888889 83.911112z m-393.386666-526.222223c-18.460444 0-27.946667 25.159111-27.946667 48.924445V719.644444c0 23.495111 13.767111 27.008 27.946667 27.008h393.386666c14.179556 0 48-3.512889 48-27.008V326.257778c0-23.779556-29.539556-48.924444-48-48.924445H315.306667z" fill="" p-id="4737"/><path d="M533.333333 348.444444h-14.222222a14.222222 14.222222 0 1 1 0-28.444444h14.222222a14.222222 14.222222 0 1 1 0 28.444444zM330.026667 462.222222a14.222222 14.222222 0 0 1-14.222223-14.222222v-33.066667c0-46.663111-10.026667-94.933333 69.077334-94.933333H462.222222a14.222222 14.222222 0 1 1 0 28.444444h-77.340444c-50.673778 0-40.632889 16.753778-40.632889 66.488889V448a14.222222 14.222222 0 0 1-14.222222 14.222222zM960 334.222222h-71.111111a28.444444 28.444444 0 0 1 0-56.888889h71.111111a28.444444 28.444444 0 0 1 0 56.888889zM960 490.666667h-71.111111a28.444444 28.444444 0 0 1 0-56.888889h71.111111a28.444444 28.444444 0 0 1 0 56.888889zM960 632.888889h-71.111111a28.444444 28.444444 0 0 1 0-56.888889h71.111111a28.444444 28.444444 0 0 1 0 56.888889zM960 760.888889h-71.111111a28.444444 28.444444 0 0 1 0-56.888889h71.111111a28.444444 28.444444 0 0 1 0 56.888889z" fill="" p-id="4738"/><path d="M301.582222 177.777778a28.444444 28.444444 0 0 1-28.444444-28.444445v-71.111111a28.444444 28.444444 0 0 1 56.888889 0v71.111111a28.444444 28.444444 0 0 1-28.444445 28.444445zM443.804444 177.777778a28.444444 28.444444 0 0 1-28.444444-28.444445v-71.111111a28.444444 28.444444 0 0 1 56.888889 0v71.111111a28.444444 28.444444 0 0 1-28.444445 28.444445zM600.248889 177.777778a28.444444 28.444444 0 0 1-28.444445-28.444445v-71.111111a28.444444 28.444444 0 0 1 56.888889 0v71.111111a28.444444 28.444444 0 0 1-28.444444 28.444445zM728.248889 177.777778a28.444444 28.444444 0 0 1-28.444445-28.444445v-71.111111a28.444444 28.444444 0 0 1 56.888889 0v71.111111a28.444444 28.444444 0 0 1-28.444444 28.444445z" fill="" p-id="4739"/><path d="M301.582222 974.222222a28.444444 28.444444 0 0 1-28.444444-28.444444v-71.111111a28.444444 28.444444 0 0 1 56.888889 0v71.111111a28.444444 28.444444 0 0 1-28.444445 28.444444zM443.804444 974.222222a28.444444 28.444444 0 0 1-28.444444-28.444444v-71.111111a28.444444 28.444444 0 0 1 56.888889 0v71.111111a28.444444 28.444444 0 0 1-28.444445 28.444444zM600.248889 974.222222a28.444444 28.444444 0 0 1-28.444445-28.444444v-71.111111a28.444444 28.444444 0 0 1 56.888889 0v71.111111a28.444444 28.444444 0 0 1-28.444444 28.444444zM728.248889 974.222222a28.444444 28.444444 0 0 1-28.444445-28.444444v-71.111111a28.444444 28.444444 0 0 1 56.888889 0v71.111111a28.444444 28.444444 0 0 1-28.444444 28.444444z" fill="" p-id="4740"/><path d="M135.111111 334.222222h-71.111111a28.444444 28.444444 0 0 1 0-56.888889h71.111111a28.444444 28.444444 0 0 1 0 56.888889zM135.111111 490.666667h-71.111111a28.444444 28.444444 0 0 1 0-56.888889h71.111111a28.444444 28.444444 0 0 1 0 56.888889zM135.111111 632.888889h-71.111111a28.444444 28.444444 0 0 1 0-56.888889h71.111111a28.444444 28.444444 0 0 1 0 56.888889zM135.111111 760.888889h-71.111111a28.444444 28.444444 0 0 1 0-56.888889h71.111111a28.444444 28.444444 0 0 1 0 56.888889z" fill="" p-id="4741"/></svg>